HIERARCHY
ROOT Hips
{
	OFFSET -14.64140 90.27770 -84.91600
	CHANNELS 6 Xposition Yposition Zposition Zrotation Xrotation Yrotation
	JOINT Spine
	{
		OFFSET 0.00000 13.20850 -1.60436
		CHANNELS 3 Zrotation Xrotation Yrotation
		JOINT Spine1
		{
			OFFSET 0.00000 8.61716 0.00000
			CHANNELS 3 Zrotation Xrotation Yrotation
			JOINT Spine2
			{
				OFFSET 0.00000 8.61717 0.00000
				CHANNELS 3 Zrotation Xrotation Yrotation
				JOINT Spine3
				{
					OFFSET 0.00000 8.61717 0.00000
					CHANNELS 3 Zrotation Xrotation Yrotation
					JOINT Neck
					{
						OFFSET 0.00000 11.07920 1.10792
						CHANNELS 3 Zrotation Xrotation Yrotation
						JOINT Neck1
						{
							OFFSET 0.00000 7.08032 0.00000
							CHANNELS 3 Zrotation Xrotation Yrotation
							JOINT Head
							{
								OFFSET 0.00000 7.08031 0.00000
								CHANNELS 3 Zrotation Xrotation Yrotation
								End site
								{
									OFFSET 0.00000 0.00000 0.00000
								}
							}
						}
					}
					JOINT RightShoulder
					{
						OFFSET -0.01000 7.91373 5.19711
						CHANNELS 3 Zrotation Xrotation Yrotation
						JOINT RightArm
						{
							OFFSET -18.41580 0.00000 0.00000
							CHANNELS 3 Zrotation Xrotation Yrotation
							JOINT RightForeArm
							{
								OFFSET -29.11090 0.00000 0.00000
								CHANNELS 3 Zrotation Xrotation Yrotation
								JOINT RightHand
								{
									OFFSET -24.65040 0.00000 0.00000
									CHANNELS 3 Zrotation Xrotation Yrotation
									JOINT RightHandThumb1
									{
										OFFSET -5.35114 -0.85590 3.97906
										CHANNELS 3 Zrotation Xrotation Yrotation
										JOINT RightHandThumb2
										{
											OFFSET -4.52789 0.00000 0.00000
											CHANNELS 3 Zrotation Xrotation Yrotation
											JOINT RightHandThumb3
											{
												OFFSET -2.46976 0.00000 0.00000
												CHANNELS 3 Zrotation Xrotation Yrotation
												End site
												{
													OFFSET 0.00000 0.00000 0.00000
												}
											}
										}
									}
									JOINT RightHandIndex1
									{
										OFFSET -14.26970 0.00000 2.88139
										CHANNELS 3 Zrotation Xrotation Yrotation
										JOINT RightHandIndex2
										{
											OFFSET -5.48836 0.00000 0.00000
											CHANNELS 3 Zrotation Xrotation Yrotation
											JOINT RightHandIndex3
											{
												OFFSET -3.01859 0.00000 0.00000
												CHANNELS 3 Zrotation Xrotation Yrotation
												End site
												{
													OFFSET 0.00000 0.00000 0.00000
												}
											}
										}
									}
									JOINT RightHandMiddle1
									{
										OFFSET -14.26970 0.00000 -0.09147
										CHANNELS 3 Zrotation Xrotation Yrotation
										JOINT RightHandMiddle2
										{
											OFFSET -6.17441 0.00000 0.00000
											CHANNELS 3 Zrotation Xrotation Yrotation
											JOINT RightHandMiddle3
											{
												OFFSET -3.56743 0.00000 0.00000
												CHANNELS 3 Zrotation Xrotation Yrotation
												End site
												{
													OFFSET 0.00000 0.00000 0.00000
												}
											}
										}
									}
									JOINT RightHandRing1
									{
										OFFSET -12.69180 0.00000 -3.06433
										CHANNELS 3 Zrotation Xrotation Yrotation
										JOINT RightHandRing2
										{
											OFFSET -5.62556 0.00000 0.00000
											CHANNELS 3 Zrotation Xrotation Yrotation
											JOINT RightHandRing3
											{
												OFFSET -3.56744 0.00000 0.00000
												CHANNELS 3 Zrotation Xrotation Yrotation
												End site
												{
													OFFSET 0.00000 0.00000 0.00000
												}
											}
										}
									}
									JOINT RightHandPinky1
									{
										OFFSET -11.11390 0.00000 -6.03719
										CHANNELS 3 Zrotation Xrotation Yrotation
										JOINT RightHandPinky2
										{
											OFFSET -4.52789 0.00000 0.00000
											CHANNELS 3 Zrotation Xrotation Yrotation
											JOINT RightHandPinky3
											{
												OFFSET -2.46976 0.00000 0.00000
												CHANNELS 3 Zrotation Xrotation Yrotation
												End site
												{
													OFFSET 0.00000 0.00000 0.00000
												}
											}
										}
									}
								}
							}
						}
					}
					JOINT LeftShoulder
					{
						OFFSET 0.01000 7.91373 5.19711
						CHANNELS 3 Zrotation Xrotation Yrotation
						JOINT LeftArm
						{
							OFFSET 18.41580 0.00000 0.00000
							CHANNELS 3 Zrotation Xrotation Yrotation
							JOINT LeftForeArm
							{
								OFFSET 29.11090 0.00000 0.00000
								CHANNELS 3 Zrotation Xrotation Yrotation
								JOINT LeftHand
								{
									OFFSET 24.65040 0.00000 0.00000
									CHANNELS 3 Zrotation Xrotation Yrotation
									JOINT LeftHandThumb1
									{
										OFFSET 5.35114 -0.85590 3.97906
										CHANNELS 3 Zrotation Xrotation Yrotation
										JOINT LeftHandThumb2
										{
											OFFSET 4.52789 0.00000 0.00000
											CHANNELS 3 Zrotation Xrotation Yrotation
											JOINT LeftHandThumb3
											{
												OFFSET 2.46977 0.00000 0.00000
												CHANNELS 3 Zrotation Xrotation Yrotation
												End site
												{
													OFFSET 0.00000 0.00000 0.00000
												}
											}
										}
									}
									JOINT LeftHandIndex1
									{
										OFFSET 14.26970 0.00000 2.88139
										CHANNELS 3 Zrotation Xrotation Yrotation
										JOINT LeftHandIndex2
										{
											OFFSET 5.48836 0.00000 0.00000
											CHANNELS 3 Zrotation Xrotation Yrotation
											JOINT LeftHandIndex3
											{
												OFFSET 3.01859 0.00000 0.00000
												CHANNELS 3 Zrotation Xrotation Yrotation
												End site
												{
													OFFSET 0.00000 0.00000 0.00000
												}
											}
										}
									}
									JOINT LeftHandMiddle1
									{
										OFFSET 14.26970 0.00000 -0.09147
										CHANNELS 3 Zrotation Xrotation Yrotation
										JOINT LeftHandMiddle2
										{
											OFFSET 6.17440 0.00000 0.00000
											CHANNELS 3 Zrotation Xrotation Yrotation
											JOINT LeftHandMiddle3
											{
												OFFSET 3.56744 0.00000 0.00000
												CHANNELS 3 Zrotation Xrotation Yrotation
												End site
												{
													OFFSET 0.00000 0.00000 0.00000
												}
											}
										}
									}
									JOINT LeftHandRing1
									{
										OFFSET 12.69180 0.00000 -3.06433
										CHANNELS 3 Zrotation Xrotation Yrotation
										JOINT LeftHandRing2
										{
											OFFSET 5.62556 0.00000 0.00000
											CHANNELS 3 Zrotation Xrotation Yrotation
											JOINT LeftHandRing3
											{
												OFFSET 3.56744 0.00000 0.00000
												CHANNELS 3 Zrotation Xrotation Yrotation
												End site
												{
													OFFSET 0.00000 0.00000 0.00000
												}
											}
										}
									}
									JOINT LeftHandPinky1
									{
										OFFSET 11.11390 0.00000 -6.03719
										CHANNELS 3 Zrotation Xrotation Yrotation
										JOINT LeftHandPinky2
										{
											OFFSET 4.52789 0.00000 0.00000
											CHANNELS 3 Zrotation Xrotation Yrotation
											JOINT LeftHandPinky3
											{
												OFFSET 2.46976 0.00000 0.00000
												CHANNELS 3 Zrotation Xrotation Yrotation
												End site
												{
													OFFSET 0.00000 0.00000 0.00000
												}
											}
										}
									}
								}
							}
						}
					}
					JOINT pCube4
					{
						OFFSET 0.00000 10.91090 1.10792
						CHANNELS 3 Zrotation Xrotation Yrotation
						End site
						{
							OFFSET 0.00000 0.00000 0.00000
						}
					}
				}
			}
		}
	}
	JOINT RightUpLeg
	{
		OFFSET -9.98441 0.00000 0.00000
		CHANNELS 3 Zrotation Xrotation Yrotation
		JOINT RightLeg
		{
			OFFSET 0.00000 -42.11790 0.00000
			CHANNELS 3 Zrotation Xrotation Yrotation
			JOINT RightFoot
			{
				OFFSET 0.00000 -45.00020 -0.00001
				CHANNELS 3 Zrotation Xrotation Yrotation
				JOINT RightForeFoot
				{
					OFFSET 0.00000 -3.74820 0.00000
					CHANNELS 3 Zrotation Xrotation Yrotation
					JOINT RightToeBase
					{
						OFFSET 0.00000 0.06325 14.43120
						CHANNELS 3 Zrotation Xrotation Yrotation
						End site
						{
							OFFSET 0.00000 0.00000 0.00000
						}
					}
				}
			}
		}
	}
	JOINT LeftUpLeg
	{
		OFFSET 9.98441 0.00000 0.00000
		CHANNELS 3 Zrotation Xrotation Yrotation
		JOINT LeftLeg
		{
			OFFSET 0.00000 -42.11800 0.00000
			CHANNELS 3 Zrotation Xrotation Yrotation
			JOINT LeftFoot
			{
				OFFSET 0.00000 -45.00070 0.00000
				CHANNELS 3 Zrotation Xrotation Yrotation
				JOINT LeftForeFoot
				{
					OFFSET 0.00000 -3.74824 0.00000
					CHANNELS 3 Zrotation Xrotation Yrotation
					JOINT LeftToeBase
					{
						OFFSET 0.00000 0.06325 14.43110
						CHANNELS 3 Zrotation Xrotation Yrotation
						End site
						{
							OFFSET 0.00000 0.00000 0.00000
						}
					}
				}
			}
		}
	}
}
MOTION
Frames: 4
Frame Time: 0.050000
0.022759499358984976 -0.007557881870468135 0.024828752577752605 -0.0005271240065126369 0.0024367888474459264 0.021724702992925334 -4.836623346608213 9.298744612954748 -0.4474903447610238 -0.8550938531787489 2.957509044743221 0.3974920822162202 -1.028561011093127 0.43406084556687385 -0.5163546849708773 -1.1127969522104086 0.27777602529884804 -0.9374019278679143 -0.6297907234475987 6.1953857097693215 1.059190724530952 -0.4903361920496589 -2.145583358354078 -2.3654729780118613 -0.5344211647963548 -16.787775502131222 -0.11529816447433923 2.932647516120535 0.11368432827641059 -7.031205496531419 52.80820558678638 4.739438047738216 35.59557874099348 6.657777805011912 17.542215851723515 74.31723655152892 27.657301952687043 -0.1119966357481614 -9.570156119115493 4.492503310418983 -0.13927088403430618 -1.6418546406858032 0.03090450086446809 0.020301892121868254 -56.23433816457379 0.04890785146927913 0.025052468873068275 -56.27844834423811 -38.7878456252608 0.04819082565114681 -0.02557277767059729 0.03947694166146416 0.00687629968278807 -0.0006452117885146707 -0.036183390882820264 0.030462330418261224 -0.03318677686252424 -36.68487767176994 0.02568474988666113 0.0398523331637086 -0.02368222888080858 0.04552196278839156 -0.01705335697922777 -0.03850003618714032 -0.003557732445545071 -0.01434157919825801 -19.733719090260813 -0.022737194982887204 0.012386980974581362 0.04422368488937362 0.02618575213491247 -0.010178628619175715 -0.0013132664501599213 0.03969278847376643 0.021489616765994993 24.103203271088905 0.00932840586018557 0.014769503509398495 28.88698053130748 -0.0034997295682758067 0.04904953620749108 28.828905620021516 0.008169900259505985 0.003418004271829679 -2.1639777756828638 0.07452635087603549 7.060869713457781 -50.79244531679171 19.804058390648027 -29.206946129693808 -24.35964057069616 15.02053353255399 -82.14297721510819 -25.72001225466138 -8.039926074320661 6.30486778246589 -0.44511269949560844 0.055427421305951394 -8.156226060805167 -0.02213350292577066 0.005087527688731848 44.61380413873271 0.03236236256563582 0.004043958519339055 44.60685586280678 12.477701654748664 0.015748216242740056 -0.02702892713716382 -0.013080632748007498 -0.03297960243987458 0.0027506928893130103 -0.02875283902458386 -0.020853417888256252 -0.03800003882203273 11.098961223768057 -0.030271285864634033 0.03817873045623082 -0.0006096644580655046 0.014315356426622902 -0.008089747652922308 -0.024779201027720882 -0.02002623480618126 0.030237587062242388 4.727104566733399 0.0319218909264941 -0.033464551222084415 0.04785656654674138 -0.016079065597321224 0.017158859344011124 -0.007802706116264448 0.026318426202144637 0.022500107147009535 -5.613157751979291 -0.00019077794493609795 0.005039991637810365 -6.714942261813031 -0.008201668004974778 -0.020551553763479193 -6.745210295479113 0.01884335264677097 -0.012669573556097288 -0.047666359382266765 -0.010900154163292219 -0.014966265791592132 8.013045753749868 3.52615936217808 -19.22074077810658 0.0352556239103439 10.391759313527958 -0.004765166225420791 -5.665682907967109 -15.653437059312024 3.196021010451491 0.01296805853755461 0.007073800836768577 -0.02061364758318147 -0.028959958309001655 4.716902522760021 0.038248160144161485 12.460736077085938 -8.225443602019588 6.89526240106447 -0.0013383146759103402 46.39312711732903 -0.03577855530198499 -4.321166165861104 -14.72651728199008 -3.8568868854675693 0.02910495612795512 -0.049063994461854964 -0.03318538362503773 0.028509095384396218 -10.746329575423129 -0.02612837173312657 
0.014669119071071405 0.0387209158111021 0.0007676429692771475 0.022782534991607272 -0.04295221113990953 0.04742923641250412 -4.833086140149193 9.26867318973266 -0.361772355561299 -0.8296210420959419 2.9526851261003806 0.42607772855782583 -0.9964594843434116 0.4766816084950677 -0.6381445805546807 -1.135086282822478 0.22029542840288122 -0.9470949390445815 -0.6848583130668707 6.0692489105081275 1.217687870952173 -0.5097812004076062 -2.105450500078289 -2.116981879639419 -0.5582287948487505 -16.687301292536528 -0.051488343160288705 3.147122794908062 0.12041771739029258 -7.104676624730193 50.63319725055423 4.2224226643653955 33.14088347197545 2.003332761387541 17.124414054648934 71.15331987626328 28.621067045747647 -0.2157578779007679 -8.877671868426722 4.5226660320063425 -0.08549966109316459 -1.5720654289127218 -0.02704828592284905 -0.02378206226639343 -56.27691291080945 0.03608168238232393 0.010049416565781018 -56.26580720751452 -38.78008638930856 0.03976841839589297 0.004379856038848473 0.030041880614093207 0.030774216653370132 0.04986726410921647 -0.035570175381590824 -0.039418686094079176 0.030837289341028674 -36.69164611505829 -0.01694236407742903 -0.022473884247119314 0.01152730965058415 -0.015214156026038223 -0.02803042473090727 0.029180432968942578 0.006126256449715808 0.03723934561732093 -19.756035567815086 -0.00958938485113488 -0.004057450395033632 0.0043238046988860225 -0.03505199523987726 0.014161906170363607 0.03337883979040696 0.02802452837967591 0.024072087246700315 24.081275298220866 0.012918243808336862 0.0395072503591977 28.91096145304739 -0.020883916100473177 -0.014491351105697515 28.915032041412164 -0.040471524333107814 -0.03399532328519688 -2.2217380162313827 0.049586802030661584 7.154062014962102 -49.19105668909274 19.741401035396485 -28.838987875132364 -19.786437305077552 13.757905112204307 -80.8226166613998 -26.398343558254048 -8.455764478166026 6.675705475826486 -0.47980721634452717 0.07375072868714014 -8.14147694848238 -0.023723674420706973 -0.020533103921579438 44.572606635895575 0.04331398558352831 -0.0028335242973043465 44.57658313299334 12.434613879046116 -0.009883263454390364 0.022868384780593883 0.034002635998742925 -0.013660646083424533 0.004718984906599731 -0.00033692102142907 -0.016886477539407075 0.0386845106420133 11.080193117909678 -0.030638958318397316 -0.030241491948499098 -0.006009469932823179 -0.012465114366107874 0.018608895755876594 0.008278597517805618 -0.021309328312298512 -0.0424452018161631 4.803992559416109 -0.016535716593704303 -0.04680298215438443 -0.03414532508251024 0.031587996745525836 0.016422043895833415 0.0051861708973019805 0.017254490316061917 0.02748832225829151 -5.564027704332704 -0.007683641331043351 0.009155733700768401 -6.7194823691722725 -0.04642668323046279 -0.012123298349805186 -6.715677952949435 -0.013002053983161725 0.030495843698982145 0.021021142078207322 -0.02658719696347254 0.04262481584777944 8.093048366766169 3.5355060158319174 -19.191904954374106 -0.012435886433348989 10.416978440487256 0.013268234194668395 -5.635176314229302 -15.669035690791802 3.202186999310367 -0.04492161817511773 0.04317803554148167 0.04895333405624654 -0.001561895391311838 4.713634641295585 0.0018054541883334636 12.48899466070696 -8.253474488175046 6.8773000566815154 -0.04620332542743032 46.362216673825884 -0.018311708288000595 -4.28538036973213 -14.777215045886983 -3.8627747398779277 -0.04909513779971526 -0.00639336193316832 0.005510014633004251 0.002075582876050114 -10.727399984894927 -0.03910368556049995 
0.019415415544391617 -0.03246488039713468 0.007568263470000444 0.0002869283475527779 0.0057986195879275474 -0.006322802170977231 -4.819079271116507 9.112521649352573 -0.3887684302832993 -0.8392959170746169 2.9738464720011524 0.42206169961581985 -1.0045401178518911 0.4406514145761747 -0.7575848222937613 -1.0877131856784295 0.13388017899739835 -1.0206685596388292 -0.7579126775022169 5.9814387207060555 1.1207820587762969 -0.45585487836153893 -2.1248212019312724 -2.198530505201831 -0.5550983231482871 -16.602024996435247 -0.023285481156348195 3.591374979687242 -0.044884844552270306 -7.185795442022361 48.94970559647843 4.157801261381049 30.255613410706257 -0.9812556277636234 16.87410699055951 68.14155683198138 29.818017171653636 -0.16144833374783998 -8.602015314141415 4.5583800114019954 -0.16189193315848735 -1.573530912572179 -0.030862856663106005 0.03542445959020555 -56.234383580197864 -0.03374872903016789 0.014058969636168714 -56.25587242469096 -38.76240022533087 -0.004940144319788221 -0.018238924265479257 -0.0042306798885299885 0.04763138209613157 0.04439123038233165 -0.023620534405961947 0.0026892146674222543 0.028224451111510507 -36.73557917768697 0.022121672251490095 0.026964261958499842 -0.049154510823834006 0.03591666453469331 0.008923189029938348 0.031111345001485397 -0.02936574153792239 0.04015845964205892 -19.783577158041872 0.008811924309866047 0.012652636727801913 -0.008521235863678294 -0.0013882592479813535 -0.034607238158612046 -0.035380686633226605 0.006985137245731376 -0.025982631186808415 24.067610757809074 0.0426222422997415 0.04866681274198965 28.82544078906941 0.038765376136552565 0.04228513534805386 28.82933091369009 0.042804255001303776 0.021252686272538523 -2.391073929447473 0.062269660620284155 7.254002068851244 -47.65631821717858 20.315375206185 -28.765182497428455 -14.554252455762207 11.747160388167313 -79.37258498958653 -27.51855801930687 -9.100179131614826 7.347145863082499 -0.4736373326261227 0.07746102631141394 -8.121137444041793 -0.007492445024821952 -0.001292865738910626 44.55305873838942 -0.02027931155250109 0.005103605883801524 44.59271669064032 12.482183494180374 0.03483555043694314 0.024726204478178842 -0.011669420428008077 -0.020801919815470336 0.023918426293006945 0.03718795421186325 0.018684369861875307 -0.0015717759645126597 11.106122969592352 0.010807656672659595 -0.043399896149185026 -0.03023856406381997 -0.03269175694990512 -0.037540298904083606 -0.008272921296155061 0.03768452844310181 0.011735772040035801 4.78837428279163 0.04068954010636705 0.01752644796391726 -0.039323453362321785 0.011467531215462097 0.027189695704065167 -0.01600719568346072 0.014062544615569904 0.021548966318586823 -5.632054991883649 -0.00038414511598550914 -0.024279038478674596 -6.70340093194766 0.00601521938581885 -0.007104162663199551 -6.715664195508778 -0.0204182021736648 0.04421442866894261 0.04655235667895729 0.026616504264459197 0.014158156163992979 8.035076152425388 3.464241670501103 -19.206546212623785 0.01592480861400039 10.43328320852812 0.03552428000864509 -5.642900628072806 -15.67712158278601 3.2108332881944106 -0.03870934602182768 -0.02295640575675656 0.02542964772264588 -0.005315012324772454 4.689358538734965 0.039299364271650324 12.472861108667153 -8.21062875818158 6.838885474144279 -0.028977045697372812 46.399838248077934 -0.04277183995596851 -4.350958376469431 -14.748789886404337 -3.8845505371096225 0.04489984668245824 0.03452967640230747 -0.008413114432259786 0.04072326832548377 -10.712727786971968 -0.04693266129891694 
-0.019840588459281546 -0.013471426970401377 0.02391167719417757 0.030988163317043044 -0.010114463604625028 -0.04260768159929662 -4.72269722796878 9.039307948730707 -0.4210938620513058 -0.8070894307746916 2.8991492439314506 0.36154253404814124 -1.003175821080957 0.3863799217377773 -1.0090040816978456 -1.019522046252911 0.18732888677564458 -1.0228061900523664 -0.7143563031963494 5.928770587025947 1.0064666931120203 -0.44375491917652626 -2.0444542022786147 -2.31149145918973 -0.5128302372581546 -16.54914152647499 -0.06328212271903642 3.9414627107313844 -0.16122704738171154 -7.2608490565365225 47.85348011435453 4.145172553101358 28.880011812419173 -1.926336242918148 16.845131494926513 66.61850849082302 30.859083333848034 -0.08077078950838025 -8.785171492065265 4.502449861251309 -0.10746801470281558 -1.6021462890751985 0.04776960569948221 0.006431710463000668 -56.200952744011154 0.02917249762465027 -0.02255787093225185 -56.22210577770066 -38.80114745595786 -0.012811351323386344 -0.017758614362912418 0.023673696981603674 0.02787039975069995 -0.028655210519990156 -0.0029265652099506887 -0.042523621607098154 -0.018397353396165283 -36.66628021627609 0.002564919478404984 0.025938690131147447 0.04936099142327336 0.043827210966287014 -0.026095258563910394 -0.04151671746281731 -0.02204660142761346 0.022020621006501276 -19.73061042580003 -0.0425450769626437 -0.04408241237025639 0.0031536142115060712 0.018477897045173067 0.044973021100861356 0.001892000153691231 -0.018449204587253503 0.009484098112411427 24.087491676075118 0.02278971657694844 -0.02615720281552299 28.89808393780966 -0.013692305449443887 0.025336567908731667 28.886024669076242 -0.03266739897477517 -0.008814306770489966 -2.4705243264979098 0.005830486150451328 7.180568785898913 -46.28526124210565 21.309958334200342 -29.453441438827436 -10.32483959603821 9.501182220560926 -78.80278845947186 -28.53612983117702 -9.699594072010365 7.972149037598533 -0.4792535090732417 0.020620356798671878 -8.112850979787106 0.04414936990630331 0.03673162256662148 44.54308333680128 -0.030713736198473562 -0.03241429978831123 44.60854340863927 12.484253484559138 0.015704150931964693 0.021418977217237237 0.033629795504697114 -0.0049249142671685345 -0.012048310029822616 -0.02953413548834333 0.015305654711790963 0.022688565706548248 11.141588432107628 -0.003925251426358173 0.023214358024931634 0.029599153428340692 0.0038220359937855136 0.014713153838475266 -0.044943698631110834 -0.0041299173312419266 -0.047644392020680874 4.750476965269497 0.02594633916175728 0.04116155498092518 -0.040117002875055 -0.02442666410000728 0.046919653144563346 -0.006126113392158281 -0.030845085143693957 -0.0055347778882100145 -5.5648943135187645 0.019356641449065248 0.013696727365916235 -6.725236434920528 0.0090578016312628 0.018673486025923277 -6.6780816550660065 -0.027737804899090425 0.04784991931802657 0.024694021131014016 0.03194223133480512 0.011104284580566896 8.033073788553667 3.4877309035240924 -19.227100769084856 -0.023388942487784413 10.435677463224945 0.04499735916765671 -5.621487364911856 -15.671633407510095 3.200364009320546 0.014281407998687006 0.029516118905356905 0.004610643488508528 0.006251335722721809 4.7286967902134585 0.03700475030301721 12.434975418347076 -8.266488015382947 6.869576150072612 0.022685700496257226 46.40209264388327 0.008666787470316241 -4.337263882551941 -14.71106626875648 -3.8568867565618015 -0.03255643051629084 0.013871320210991285 -0.008553222162447095 0.03208381502845091 -10.767517987778007 -0.025982121931203812 
